<?xml version="1.0" standalone="no"?>
<!DOCTYPE svg PUBLIC "-//W3C//DTD SVG 20010904//EN"
 "http://www.w3.org/TR/2001/REC-SVG-20010904/DTD/svg10.dtd">
<svg version="1.0" xmlns="http://www.w3.org/2000/svg"
 width="500.000000pt" height="500.000000pt" viewBox="0 0 500.000000 500.000000"
 preserveAspectRatio="xMidYMid meet">

<g transform="translate(0.000000,500.000000) scale(0.100000,-0.100000)"
fill="#000000" stroke="none">
<path d="M2105 4606 c-182 -45 -329 -206 -355 -391 -5 -38 -10 -159 -10 -267
l0 -198 -634 0 c-608 0 -637 -1 -699 -20 -135 -42 -255 -153 -308 -287 -23
-56 -24 -70 -27 -378 -4 -384 -14 -357 131 -365 l92 -5 3 -895 c3 -741 6 -906
18 -959 48 -211 244 -401 459 -446 105 -22 3345 -22 3450 0 212 44 404 228
460 441 14 51 16 167 15 906 0 465 3 871 6 902 l7 56 87 0 c137 0 130 -18 130
341 0 321 -6 366 -58 463 -35 65 -125 157 -181 186 -113 57 -81 55 -691 60
l-565 5 -6 250 c-5 229 -7 255 -28 308 -33 83 -105 173 -179 224 -114 78 -109
77 -617 80 -333 1 -463 -1 -500 -11z m971 -153 c34 -11 67 -35 110 -77 90 -90
94 -109 94 -393 l0 -233 -692 2 -693 3 0 245 0 245 27 51 c39 74 119 141 198
165 14 4 223 8 466 8 387 1 446 -1 490 -16z m-1610 -1469 c15 -11 37 -33 48
-48 20 -26 21 -42 24 -335 3 -306 3 -307 -20 -341 -47 -69 -64 -75 -220 -78
-165 -4 -212 8 -256 66 l-27 35 -3 276 c-4 312 -1 349 33 390 47 55 74 62 242
59 135 -3 155 -5 179 -24z m2450 0 c15 -11 37 -33 48 -48 20 -26 21 -42 24
-324 3 -292 2 -298 -20 -342 -17 -33 -35 -51 -68 -68 -42 -21 -55 -23 -192
-20 -162 3 -179 9 -225 78 -23 32 -23 39 -23 326 0 303 3 329 43 373 42 45 71
51 234 48 135 -2 155 -4 179 -23z m-3056 -496 c0 -248 9 -287 87 -364 84 -85
129 -97 348 -92 163 3 184 6 222 26 67 35 110 78 143 144 l30 61 0 214 0 213
810 0 810 0 0 -208 c0 -249 7 -279 84 -358 83 -84 130 -96 351 -92 l181 3 58
35 c32 19 74 55 92 80 56 74 64 119 64 342 l0 198 205 0 205 0 0 -883 c0 -980
3 -934 -66 -1049 -38 -62 -118 -140 -173 -167 -108 -55 8 -52 -1832 -49
l-1694 3 -70 34 c-80 39 -180 132 -214 198 -52 102 -51 92 -51 1035 l0 878
205 0 205 0 0 -202z"/>
<path d="M1558 1787 c-74 -26 -165 -83 -204 -130 -35 -42 -74 -121 -74 -152 0
-14 11 -37 25 -50 22 -23 32 -25 117 -25 l93 0 23 -33 c27 -41 27 -45 -3 -80
-25 -28 -26 -28 -107 -22 -73 6 -87 4 -115 -14 -29 -18 -33 -26 -33 -64 0 -80
108 -215 213 -266 143 -69 279 -67 420 7 61 32 167 129 167 154 0 10 338 10
627 1 l210 -6 41 -52 c77 -101 188 -155 329 -163 82 -4 100 -2 173 24 100 35
189 110 238 202 35 65 37 79 21 115 -16 36 -50 47 -147 48 -84 0 -88 1 -110
29 l-23 30 28 35 28 35 88 0 c101 0 119 7 137 50 36 88 -103 252 -265 312 -89
33 -218 31 -304 -5 -86 -35 -148 -79 -196 -139 l-40 -51 -209 7 c-115 3 -302
6 -416 6 l-206 0 -20 34 c-23 39 -101 109 -152 135 -109 56 -242 66 -354 28z
m264 -159 c48 -20 115 -86 153 -149 11 -18 31 -36 45 -40 31 -9 962 -11 985
-3 8 4 23 20 31 36 24 46 94 117 139 141 32 18 57 22 130 22 78 0 96 -3 134
-25 57 -32 64 -50 19 -50 -43 0 -45 -2 -115 -91 -101 -127 -101 -123 -13 -239
71 -93 78 -99 131 -108 l44 -8 -35 -22 c-149 -94 -336 -47 -422 105 -17 30
-41 58 -53 63 -12 5 -240 10 -505 11 l-483 2 -21 -26 c-12 -14 -33 -44 -48
-66 -34 -50 -98 -98 -152 -112 -64 -17 -165 -8 -221 21 -59 31 -69 50 -25 50
47 0 62 12 134 104 44 57 66 94 66 112 0 17 -23 57 -66 116 -70 94 -87 108
-128 108 -38 0 -32 17 14 40 85 43 172 46 262 8z"/>
</g>
</svg>
